<?xml version="1.0" encoding="utf-8"?>
<!-- Generator: Adobe Illustrator 23.0.2, SVG Export Plug-In . SVG Version: 6.00 Build 0)  -->
<svg version="1.1" id="Calque_1" xmlns="http://www.w3.org/2000/svg" xmlns:xlink="http://www.w3.org/1999/xlink" x="0px" y="0px"
	 viewBox="0 0 147 126" style="enable-background:new 0 0 147 126;" xml:space="preserve">
<style type="text/css">
	.st0{fill:#828282;}
</style>
<g>
	<path class="st0" d="M65.9,66.4c-10,0.1-19.4,0.1-28.8,0.2c-3.2,0-6.5,0.1-9.7,0c-2.8,0-4.8-1.6-4.9-3.8c-0.1-2.2,2-4,4.9-4
		c11.8-0.1,23.7-0.1,35.5-0.1c0.8,0,1.5,0.2,2.5,0.4c-0.1-9-0.1-17.5-0.2-26c0-2.9-0.1-5.8,0-8.8c0-2.5,1.8-4.3,4.2-4.4
		c2.5-0.1,4.4,1.8,4.4,4.4C73.9,35,74,45.7,74,56.4c0,0.7-0.3,1.4-0.4,2.3c10-0.1,19.4-0.1,28.8-0.2c3.2,0,6.5-0.1,9.7,0
		c2.8,0,4.8,1.6,4.9,3.8c0.1,2.2-2,4-4.9,4c-11.8,0.1-23.7,0.1-35.5,0.1c-0.8,0-1.5-0.2-2.5-0.4c0.1,9,0.1,17.5,0.2,26
		c0,2.9,0.1,5.8,0,8.8c0,2.5-1.8,4.3-4.2,4.4c-2.5,0.1-4.4-1.8-4.4-4.4c-0.1-10.7-0.1-21.4-0.2-32.2C65.5,68,65.8,67.3,65.9,66.4z"
		/>
</g>
</svg>
