<?xml version="1.0" encoding="utf-8"?>
<!-- Generator: Adobe Illustrator 23.0.2, SVG Export Plug-In . SVG Version: 6.00 Build 0)  -->
<svg version="1.1" id="Calque_1" xmlns="http://www.w3.org/2000/svg" xmlns:xlink="http://www.w3.org/1999/xlink" x="0px" y="0px"
	 viewBox="0 0 147 126" style="enable-background:new 0 0 147 126;" xml:space="preserve">
<style type="text/css">
	.st0{fill:#828282;}
</style>
<g>
	<path class="st0" d="M75,104.5c-9.5-1.9-19.1-3.4-28.4-5.8c-5.2-1.3-8.3-4.7-7.2-10.3c0.4-2,0.3-4.2,0.6-6.3
		c1.6-11.9,6.1-16,21.7-18.7c1.5-0.2,3.2,1.2,4.9,1.3c4.6,0.3,9.7,1.6,13.8,0.3c9.4-2.9,23.1,2.3,25.6,11.3
		c1.4,5.3,1.9,10.9,1.6,16.3c-0.1,2-3,4.6-5.3,5.8c-8.3,4.2-17.6,4.8-27,4.5C75.3,103.5,75.2,104,75,104.5z"/>
	<path class="st0" d="M94,40.6c-2.2,5-3.4,10.5-6.7,14.7c-6.7,8.8-19.1,8.4-26.2-0.1c-5.6-6.7-6.4-20.1-1.6-27.2
		c3.2-4.8,11-7.4,18.5-6.2c8.3,1.4,12.8,5.1,14,12c0.4,2.1,0.4,4.2,0.6,6.3C93,40.2,93.5,40.4,94,40.6z"/>
</g>
</svg>
