<?xml version="1.0" encoding="utf-8"?>
<!-- Generator: Adobe Illustrator 23.0.2, SVG Export Plug-In . SVG Version: 6.00 Build 0)  -->
<svg version="1.1" id="Calque_1" xmlns="http://www.w3.org/2000/svg" xmlns:xlink="http://www.w3.org/1999/xlink" x="0px" y="0px"
	 viewBox="0 0 147 126" style="enable-background:new 0 0 147 126;" xml:space="preserve">
<style type="text/css">
	.st0{fill:#818181;}
</style>
<g>
	<path class="st0" d="M32,105.7c0.8-1.1,1.5-2.3,2.5-3.2c9.2-9.2,18.4-18.4,27.6-27.6c0.6-0.5,1.3-1,1.9-1.5
		c-3.8-5.1-6.1-10.4-7.3-16.2c-3.6-18.6,9.3-37.9,28-41.6c1.5-0.3,2.9-0.6,4.4-0.8c2.1,0,4.3,0,6.4,0c0.4,0.1,0.8,0.3,1.2,0.3
		c14.6,2.1,24.5,10.1,29.7,23.8c1.1,2.8,1.5,5.9,2.2,8.9c0,2.1,0,4.3,0,6.4c-0.6,2.7-1,5.5-1.9,8.1c-7.6,23-35,32.1-54.9,18.3
		c-0.5-0.3-0.9-0.6-2.1-1.6c-0.4,0.7-0.6,1.6-1.1,2.1c-9.2,9.3-18.5,18.5-27.8,27.8c-0.9,0.9-2.1,1.6-3.2,2.4c-0.7,0-1.4,0-2.1,0
		c-1.1-1.1-2.3-2.3-3.4-3.4C32,107.1,32,106.4,32,105.7z M119.5,51c0-15-12.3-27.2-27.3-27.2c-14.8,0-27.2,12.4-27.2,27.2
		c0,14.9,12.4,27.3,27.3,27.3C107.2,78.1,119.5,65.8,119.5,51z"/>
</g>
</svg>
