<svg id="Calque_1" data-name="Calque 1" xmlns="http://www.w3.org/2000/svg" viewBox="0 0 77 85"><defs><style>.cls-1{fill:#818181;}</style></defs><title>connexion</title><path class="cls-1" d="M47.4,106.1a20.63,20.63,0,0,1-3.5-1.2,9.75,9.75,0,0,1-5.2-8.8V79.4c.5.4.9.8,1.3,1.1l4.7,4.1a1.17,1.17,0,0,1,.5,1.1V95.9a3.25,3.25,0,0,0,1.4,3,3.92,3.92,0,0,0,2.4.6H93.8a3.41,3.41,0,0,0,2.4-.7,3,3,0,0,0,1.3-2.4v-65a3.52,3.52,0,0,0-1.3-3.2,3.79,3.79,0,0,0-2.3-.6H49a3.54,3.54,0,0,0-3.4,1.7,4.92,4.92,0,0,0-.4,2.1V41.5a1.17,1.17,0,0,1-.5,1.1c-1.8,1.5-3.6,3.1-5.4,4.6-.2.1-.3.3-.6.5V31.1A9.39,9.39,0,0,1,44.4,22a14.88,14.88,0,0,1,3-.9H95.6a.6.6,0,0,0,.4.1,9.85,9.85,0,0,1,8,10.1V96.5a9.44,9.44,0,0,1-4.9,8c-1.1.6-2.5.9-3.7,1.4C79.4,106.1,63.4,106.1,47.4,106.1Z" transform="translate(-27 -21.1)"/><path class="cls-1" d="M49.8,73.47H30.7c-2.5,0-3.7-1.2-3.7-3.7V57.67c0-2.4,1.2-3.7,3.7-3.7H49.8v-7.9a8.33,8.33,0,0,1,.3-2.2,2.1,2.1,0,0,1,3.4-1c2.8,2.4,5.5,4.8,8.2,7.1,3.6,3.1,7.1,6.2,10.7,9.2,1.7,1.4,3.3,2.9,5.1,4.4-1,.8-1.9,1.7-2.8,2.5-2.4,2.1-4.8,4.1-7.2,6.2-3,2.6-6,5.2-9.1,7.8-1.5,1.3-3.1,2.6-4.6,4a2.15,2.15,0,0,1-2.5.6,2.36,2.36,0,0,1-1.5-2.1,10.87,10.87,0,0,1-.1-1.8v-6.5A1.72,1.72,0,0,0,49.8,73.47Z" transform="translate(-27 -21.1)"/></svg>