<?xml version="1.0" encoding="utf-8"?>
<!-- Generator: Adobe Illustrator 23.0.2, SVG Export Plug-In . SVG Version: 6.00 Build 0)  -->
<svg version="1.1" id="Calque_1" xmlns="http://www.w3.org/2000/svg" xmlns:xlink="http://www.w3.org/1999/xlink" x="0px" y="0px"
	 viewBox="0 0 147 126" style="enable-background:new 0 0 147 126;" xml:space="preserve">
<style type="text/css">
	.st0{fill:#818181;}
</style>
<g>
	<path class="st0" d="M95.3,21.1c1.2,0.4,2.4,0.6,3.5,1.2c3.4,1.9,5.1,4.9,5.2,8.8c0,4.5,0,9.1,0,13.6c0,1,0,1.9,0,3.1
		c-0.5-0.4-0.9-0.8-1.3-1.1c-1.6-1.4-3.1-2.7-4.7-4.1c-0.4-0.3-0.5-0.6-0.5-1.1c0-3.4,0-6.8,0-10.2c0-1.2-0.3-2.3-1.4-3
		c-0.7-0.5-1.5-0.6-2.4-0.6c-7.3,0-14.6,0-22,0c-7.6,0-15.2,0-22.8,0c-0.9,0-1.7,0.1-2.4,0.7c-0.8,0.6-1.3,1.4-1.3,2.4
		c0,0.3,0,0.6,0,0.9c0,21.4,0,42.7,0,64.1c0,1.3,0.2,2.4,1.3,3.2c0.7,0.5,1.5,0.6,2.3,0.6c2.7,0,5.4,0,8.1,0c12.3,0,24.5,0,36.8,0
		c1.4,0,2.7-0.4,3.4-1.7c0.3-0.6,0.4-1.4,0.4-2.1c0-3.4,0-6.7,0-10.1c0-0.5,0.1-0.8,0.5-1.1c1.8-1.5,3.6-3.1,5.4-4.6
		c0.2-0.1,0.3-0.3,0.6-0.5c0,0.3,0,0.5,0,0.7c0,5.3,0,10.6,0,15.9c0,4.2-1.9,7.3-5.7,9.1c-0.9,0.5-2,0.6-3,0.9
		c-16.1,0-32.1,0-48.2,0c-0.1-0.1-0.3-0.1-0.4-0.1c-1.4-0.3-2.7-0.8-3.8-1.6c-2.9-2.1-4.2-5-4.2-8.5c0-21.4,0-42.9,0-64.3
		c0-0.3,0-0.6,0-0.9c0.3-3.5,1.8-6.3,4.9-8c1.1-0.6,2.5-0.9,3.7-1.4C63.3,21.1,79.3,21.1,95.3,21.1z"/>
	<path class="st0" d="M81.1,73.3c-0.4,0-0.7,0-1,0c-6,0-12.1,0-18.1,0c-2.5,0-3.7-1.2-3.7-3.7c0-4,0-8.1,0-12.1
		c0-2.4,1.2-3.7,3.7-3.7c6.1,0,12.2,0,18.2,0c0.3,0,0.5,0,0.9,0c0-0.3,0-0.5,0-0.8c0-2.4,0-4.7,0-7.1c0-0.7,0.1-1.5,0.3-2.2
		c0.5-1.5,2.2-2,3.4-1c2.8,2.4,5.5,4.8,8.2,7.1c3.6,3.1,7.1,6.2,10.7,9.2c1.7,1.4,3.3,2.9,5.1,4.4c-1,0.8-1.9,1.7-2.8,2.5
		c-2.4,2.1-4.8,4.1-7.2,6.2c-3,2.6-6,5.2-9.1,7.8c-1.5,1.3-3.1,2.6-4.6,4c-0.7,0.7-1.5,1-2.5,0.6c-1-0.4-1.4-1.2-1.5-2.1
		c-0.1-0.6-0.1-1.2-0.1-1.8c0-2.2,0-4.3,0-6.5C81.1,73.9,81.1,73.7,81.1,73.3z"/>
</g>
</svg>
