<?xml version="1.0" encoding="utf-8"?>
<!-- Generator: Adobe Illustrator 23.0.2, SVG Export Plug-In . SVG Version: 6.00 Build 0)  -->
<svg version="1.1" id="Calque_1" xmlns="http://www.w3.org/2000/svg" xmlns:xlink="http://www.w3.org/1999/xlink" x="0px" y="0px"
	 viewBox="0 0 129.5 70.3" style="enable-background:new 0 0 129.5 70.3;" xml:space="preserve">
<style type="text/css">
	.st0{fill:#C56674;}
	.st1{fill:#C2C987;}
	.st2{fill:#FCFCFA;}
	.st3{fill:#FDFBFB;}
</style>
<g>
	<circle class="st0" cx="85.5" cy="35.1" r="24.8"/>
	<circle class="st1" cx="41.5" cy="35.1" r="24.8"/>
	<path class="st2" d="M27.5,33.9c0-2,0.3-3,1.6-3.3c1.4-0.3,2.9-0.3,3.6,1.1c0.9,1.6,1.6,3.3,2.2,5.1c0.8,2.2,1.3,3.4,3.4,0.8
		C42,33.2,46,29.2,49.8,25c0.6-0.6,1.2-1.3,1.9-1.7c1.4-0.9,2.8-0.7,4,0.5c1.2,1.2,0.5,2.5-0.2,3.3c-2,2.5-4.3,4.8-6.4,7.2
		c-3.6,3.9-7.1,7.9-10.7,11.8c-2.7,2.8-5.1,2.4-6.6-1.1C30.2,41.1,28.8,37.2,27.5,33.9z"/>
	<path class="st3" d="M78.3,22.7c1.8,0.5,2.7,2.3,4,3.5c4.3,4.3,4.3,4.3,8.5,0c0.9-0.9,1.7-1.8,2.6-2.7c1.4-1.4,2.6-1,3.8,0.3
		c1.2,1.2,1.6,2.5,0.3,3.9c-1.5,1.5-2.8,3.2-4.4,4.5c-2.5,1.9-2,3.5,0.1,5.3c1.4,1.2,2.6,2.6,4,3.9c1.6,1.5,1.5,2.9,0,4.4
		c-1.7,1.8-3,1.1-4.3-0.4c-1.2-1.3-2.6-2.3-3.6-3.7c-2.1-3.1-3.8-2.2-5.6,0.3c-1,1.4-2.4,2.5-3.6,3.8c-1.2,1.3-2.4,1.6-3.8,0.3
		c-1.5-1.4-2-2.8-0.5-4.5c1.7-1.8,3.4-3.6,5.2-5.3c1.4-1.3,1.1-2.1-0.1-3.3c-1.8-1.7-3.5-3.5-5.2-5.3c-0.8-0.9-1.3-1.9-0.4-3
		C76,23.7,76.7,22.6,78.3,22.7z"/>
</g>
</svg>
