<?xml version="1.0" encoding="utf-8"?>
<!-- Generator: Adobe Illustrator 23.0.2, SVG Export Plug-In . SVG Version: 6.00 Build 0)  -->
<svg version="1.1" id="Calque_1" xmlns="http://www.w3.org/2000/svg" xmlns:xlink="http://www.w3.org/1999/xlink" x="0px" y="0px"
	 viewBox="0 0 147 126" style="enable-background:new 0 0 147 126;" xml:space="preserve">
<style type="text/css">
	.st0{fill:#818181;}
</style>
<g>
	<path class="st0" d="M47.8,22.6c17.1,0,34.2,0,51.2,0c0.1,0.2,0.3,0.4,0.3,0.6c0,3.1,0,6.1,0,9.2c0,0.6,0,1.1,0,1.8
		c4.8,0,9.7,0,14.5,0c0,0.1,0,0.2,0,0.3c0.1,3.2,0.1,6.4-0.3,9.5c-0.4,3.3-1,6.5-2.2,9.6c-2.3,6.5-6.1,11.9-11.5,16.2
		c-4.4,3.5-9.3,5.9-14.8,7.4c-0.3,0.1-0.6,0.3-0.8,0.5c-1.5,1.5-3.1,2.9-5,3.9c-0.9,0.5-1.9,0.9-2.9,1.3c0,0.1,0,0.2,0,0.4
		c0,1.8,0,3.7,0,5.5c0,0.8,0.2,1.5,0.5,2.2c0.8,1.8,2.3,3,4,4c3,1.6,6.2,2.2,9.5,2.4c1.9,0.1,3.8,0.1,5.6,0.2c0.5,0,0.6,0.1,0.6,0.6
		c0,1.5,0,3,0,4.4c0,0.3-0.1,0.5-0.3,0.7c-15.2,0-30.3,0-45.5,0c-0.1-0.2-0.3-0.5-0.3-0.7c0-1.5,0-2.9,0-4.4c0-0.6,0.1-0.7,0.7-0.7
		c2.1-0.1,4.2-0.1,6.2-0.2c2.4-0.2,4.7-0.7,6.9-1.5c1.9-0.8,3.6-1.8,4.8-3.4c1-1.3,1.6-2.6,1.6-4.3c-0.1-1.6,0-3.2,0-4.9
		c0-0.1,0-0.3,0-0.4c-0.7-0.3-1.4-0.5-2.1-0.9c-2.3-1.1-4.2-2.6-5.9-4.4c-0.2-0.2-0.4-0.3-0.6-0.4c-1.3-0.4-2.7-0.8-4-1.3
		c-6.6-2.4-12.2-6.3-16.6-11.8c-5.3-6.7-7.8-14.4-8.2-22.8c-0.1-2.2-0.1-4.4-0.1-6.6c0-0.2,0-0.3,0-0.6c4.9,0,9.7,0,14.5,0
		c0-0.3,0-0.6,0-0.9c0-3.3-0.1-6.6-0.1-10C47.5,23.1,47.7,22.9,47.8,22.6z M98.9,40c-1.3,10-3.3,19.9-8.3,29c5.9-3,10.3-7.3,13.4-13
		c2.7-5,3.8-10.4,4-16.1C105,40,101.9,40,98.9,40z M38.9,40c0.2,6,1.5,11.7,4.5,16.9c3,5.2,7.3,9.2,12.8,12C51.3,59.8,49.3,50,48,40
		C45,40,42,40,38.9,40z"/>
</g>
</svg>
